<?xml version="1.0" encoding="utf-8"?>
<!-- Generator: Adobe Illustrator 26.0.0, SVG Export Plug-In . SVG Version: 6.00 Build 0)  -->
<svg version="1.1"
	 id="svg2" inkscape:export-filename="/home/leogg/Descargas/tempconvert/SUBIR/2023_todos_juntos_vamos_adelante.png" xmlns:inkscape="http://www.inkscape.org/namespaces/inkscape" xmlns:sodipodi="http://sodipodi.sourceforge.net/DTD/sodipodi-0.dtd" xmlns:svg="http://www.w3.org/2000/svg"
	 xmlns="http://www.w3.org/2000/svg" xmlns:xlink="http://www.w3.org/1999/xlink" x="0px" y="0px" viewBox="0 0 8192 4551.1"
	 style="enable-background:new 0 0 8192 4551.1;" xml:space="preserve">
<style type="text/css">
	.st0{fill:#911C82;}
	.st1{fill:url(#path2098_00000121248458484035981030000008152026049683017637_);}
	.st2{fill:url(#path2115_00000181066055926671088090000017234614884749755051_);}
	.st3{fill:url(#SVGID_1_);}
	.st4{fill:#0098D9;}
	.st5{fill:#D60F8C;}
	.st6{fill:#91338D;}
	.st7{fill:url(#SVGID_00000047782136291062921660000010910246776313189772_);}
	.st8{fill:none;}
	.st9{fill:#FE0106;}
</style>
<g>
	<g>
		<g>
			<g>
				<path class="st0" d="M266.3,4373.8l-145.6,7.1l4.8,98.7l10.9-0.5c14.6-0.7,25.6,1.9,32.9,7.8c7.3,5.9,11.2,14,11.7,24.2
					c0.5,10.2-2.6,18.5-9.2,25.2c-6.7,6.6-17.3,10.2-31.9,11L61,4551c-14.6,0.7-25.6-1.9-32.9-7.9c-7.3-6-11.2-14.1-11.7-24.3
					c-0.5-10.2,3.7-19.6,12.7-28.1c4.4-4.4,13.9-7,28.5-7.7l-13.1-266.7c-14.6,0.7-25.6-1.9-32.9-7.8c-7.3-5.9-11.2-14-11.6-24.2
					c-0.5-10.2,2.6-18.5,9.2-25.2c6.7-6.6,17.3-10.2,32-11l78.9-3.9c14.6-0.7,25.6,1.9,32.8,7.6c7.3,5.8,11.2,13.8,11.6,24
					c0.5,10.2-2.6,18.7-9.2,25.3c-6.7,6.7-17.3,10.4-31.9,11.1l-10.9,0.5l4.9,100l145.6-7.1l-4.9-100l-10.9,0.5
					c-14.6,0.7-25.6-1.9-32.9-7.8c-7.3-5.9-11.2-14-11.6-24.2s2.6-18.5,9.2-25.2c6.7-6.6,17.3-10.2,32-11l78.9-3.9
					c14.6-0.7,25.6,1.9,32.8,7.6c7.3,5.8,11.2,13.8,11.6,24c0.5,10.2-2.6,18.7-9.2,25.3c-6.7,6.7-17.3,10.4-31.9,11.1l13,266.7
					c14.6-0.7,24.2,0.9,28.9,4.7c9.9,7.9,15.1,17,15.6,27.2c0.5,10.2-2.6,18.5-9.2,25.2c-6.7,6.6-17.3,10.2-31.9,11l-78.9,3.9
					c-14.6,0.7-25.6-1.9-32.9-7.9c-7.3-6-11.2-14.1-11.7-24.3c-0.5-10.2,2.6-18.5,9.2-24.9c6.7-6.5,17.3-10.1,32-10.8l10.9-0.5
					L266.3,4373.8z"/>
				<path class="st0" d="M708.3,4409.5l-164.7,8.1l-14.8,42.3l16.3-0.8c17-0.8,29.2,1.7,36.5,7.6c7.3,5.9,11.2,14,11.7,24.2
					c0.5,10.2-2.6,18.5-9.2,25.2c-6.7,6.6-18.5,10.3-35.5,11.1l-89.6,4.4c-16.9,0.8-28.9-1.7-36.2-7.8c-7.3-6-11.2-14.1-11.7-24.3
					c-0.5-10.2,2.6-18.5,9.2-25s18.4-10.1,35.3-10.9l94.4-271.9l-44.2,2.1c-16.9,0.8-28.9-1.7-36.2-7.6c-7.3-5.9-11.2-14-11.6-24.2
					c-0.5-10.2,2.6-18.5,9.2-25.2c6.7-6.6,18.4-10.3,35.3-11.1l146.1-7.1l152,328.1c16.9-0.8,27.7,0.6,32.6,4.5
					c9.8,8,14.9,17,15.3,27.3c0.5,10.2-2.6,18.5-9.2,25.2c-6.7,6.6-18.4,10.3-35.3,11.1l-89.7,4.4c-17,0.8-29.1-1.7-36.4-7.8
					c-7.3-6-11.2-14.1-11.7-24.3c-0.5-10.2,2.6-18.5,9.2-24.9c6.7-6.5,18.5-10.1,35.5-11l16.3-0.8L708.3,4409.5z M677.4,4342.8
					l-61.4-132.5l-48.2,137.9L677.4,4342.8z"/>
				<path class="st0" d="M1094.6,4114.5c3.9-6.1,8.3-10.7,13.2-14s10.1-4.9,16-5.2c9.9-0.5,18.3,2.6,25,9.1
					c6.7,6.5,10.4,18,11.2,34.4l2.8,57.8c0.8,16.4-1.8,28.2-7.8,35.5c-5.9,7.3-13.9,11.2-23.8,11.6c-9,0.5-16.5-1.7-22.3-6.5
					c-5.8-4.8-10.3-14.1-13.7-27.9c-2-9.2-5.4-16.2-10.3-21.1c-9.6-9.5-22.6-16.8-39.2-22c-16.5-5.2-33-7.4-49.4-6.6
					c-20.4,1-38.8,6.3-55.4,16.1c-16.6,9.7-30.9,24.9-43,45.4c-12.1,20.6-17.4,44.6-16.2,72.2l2.1,44.3
					c1.6,32.8,14.8,59.6,39.7,80.4c24.9,20.8,58.5,30.2,100.7,28.1c25.3-1.2,46.5-5.7,63.6-13.4c10-4.5,20.5-12.9,31.4-25.3
					c6.7-7.5,12.1-12.3,16-14.7c3.9-2.3,8.4-3.6,13.5-3.8c9-0.5,17.2,2.6,24.4,9.1c7.2,6.6,11,14.5,11.5,23.8
					c0.5,9.3-3.7,19.5-12.5,30.6c-12.7,16.2-29.5,29.2-50.3,39.2c-28,13.4-59.2,20.9-93.7,22.5c-40.2,1.9-77-4.6-110.2-19.6
					c-26.7-12-50.1-31.9-69.8-59.8c-19.8-27.8-30.5-58.7-32.2-92.6l-2.3-46.2c-1.7-35.5,4.9-68.9,19.8-100.5
					c15-31.5,36.6-56.3,65-74.3c28.4-18,58.9-27.8,91.6-29.5c19.7-1,38.2,0.5,55.6,4.2C1063,4099.6,1079.4,4105.8,1094.6,4114.5z"/>
				<path class="st0" d="M1338.9,4153.1l13,266.7l38.2-1.9c16.9-0.8,28.9,1.7,36.2,7.6c7.3,5.9,11.2,14,11.7,24.2
					c0.5,10.2-2.6,18.5-9.2,25.2c-6.7,6.6-18.4,10.3-35.3,11.1l-134.4,6.6c-16.9,0.8-29-1.7-36.2-7.8c-7.3-6-11.2-14.1-11.7-24.3
					c-0.5-10.2,2.6-18.5,9.2-24.9c6.7-6.5,18.5-10.1,35.3-11l28.1-1.4l-13-266.7l-28.1,1.4c-16.9,0.8-29-1.7-36.2-7.6
					c-7.3-5.9-11.2-14-11.6-24.2c-0.5-10.2,2.6-18.5,9.2-25.2c6.7-6.6,18.4-10.3,35.3-11.1l134.4-6.6c16.9-0.8,28.9,1.7,36.2,7.4
					c7.3,5.8,11.2,13.8,11.6,24c0.5,10.2-2.6,18.7-9.2,25.3c-6.7,6.7-18.4,10.5-35.3,11.3L1338.9,4153.1z"/>
				<path class="st0" d="M1744.5,4359l-164.7,8.1l-14.8,42.3l16.3-0.8c17-0.8,29.2,1.7,36.5,7.6c7.3,5.9,11.2,14,11.7,24.2
					c0.5,10.2-2.6,18.5-9.2,25.2c-6.7,6.6-18.5,10.3-35.5,11.1l-89.6,4.4c-16.9,0.8-28.9-1.7-36.2-7.8c-7.3-6-11.2-14.1-11.7-24.3
					c-0.5-10.2,2.6-18.5,9.2-24.9c6.7-6.5,18.4-10.1,35.3-10.9l94.4-271.9l-44.2,2.1c-16.9,0.8-28.9-1.7-36.2-7.6
					c-7.3-5.9-11.2-14-11.6-24.2c-0.5-10.2,2.6-18.5,9.2-25.2c6.7-6.6,18.4-10.3,35.3-11.1l146.1-7.1l152,328.1
					c16.9-0.8,27.7,0.6,32.6,4.5c9.8,8,14.9,17,15.3,27.3c0.5,10.2-2.6,18.5-9.2,25.2c-6.7,6.6-18.4,10.3-35.3,11.1l-89.7,4.4
					c-17,0.8-29.1-1.7-36.4-7.8c-7.3-6-11.2-14.1-11.7-24.3c-0.5-10.2,2.6-18.5,9.2-25c6.7-6.5,18.5-10.1,35.5-11l16.3-0.8
					L1744.5,4359z M1713.6,4292.2l-61.4-132.5l-48.2,137.9L1713.6,4292.2z"/>
				<path class="st0" d="M2180,4172.6l10.1,206.1l24.5-1.2c16.9-0.8,28.9,1.7,36.2,7.6c7.3,5.9,11.2,14,11.7,24.2
					c0.5,10.2-2.6,18.5-9.2,25.2c-6.7,6.6-18.4,10.3-35.3,11.1l-92.5,4.5c-16.9,0.8-29-1.7-36.2-7.8c-7.3-6-11.2-14.1-11.7-24.3
					c-0.5-10.2,2.6-18.5,9.2-24.9c6.7-6.5,18.5-10.1,35.3-11l-13-266.7l-10.9,0.5c-16.9,0.8-29-1.7-36.2-7.6
					c-7.3-5.9-11.2-14-11.6-24.2s2.6-18.5,9.2-25.2c6.7-6.6,18.4-10.3,35.3-11.1l78.3-3.8l188.8,264.6l-10-205.1l-24.5,1.2
					c-16.9,0.8-29-1.7-36.2-7.6s-11.2-14-11.6-24.2s2.6-18.5,9.2-25.2c6.7-6.6,18.4-10.3,35.3-11.1l92.5-4.5
					c16.9-0.8,28.9,1.7,36.2,7.4c7.3,5.8,11.2,13.8,11.6,24c0.5,10.2-2.6,18.7-9.2,25.3c-6.7,6.7-18.4,10.5-35.3,11.3l16.3,334.7
					l-66.7,3.2L2180,4172.6z"/>
				<path class="st0" d="M2828.2,4080.3l9.4,193.2c2.1,42.1-11.3,78.7-40.1,109.6c-28.8,30.9-64.4,47.5-106.9,49.6
					c-21.1,1-41-1.7-59.8-8.2c-18.9-6.5-36-16.6-51.4-30.3c-15.4-13.7-27.6-28.2-36.6-43.4c-9-15.2-14.1-35.9-15.4-62.1l-9.4-193.2
					c-16.9,0.8-29-1.7-36.2-7.8c-7.3-6-11.2-14.1-11.7-24.3c-0.5-10.2,2.6-18.5,9.2-24.9c6.7-6.5,18.5-10.1,35.3-11l92.5-4.5
					c14.6-0.7,25.6,1.9,32.9,7.8c7.3,5.9,11.2,14,11.7,24.2c0.5,10.2-2.6,18.5-9.2,25.2c-6.7,6.6-17.3,10.2-31.9,11l-24.5,1.2
					l9.8,199.3c1,20.4,10.3,38.1,28,52.8c17.7,14.8,38.6,21.6,62.5,20.5c16-0.8,30.7-5.2,44.3-13.5c13.6-8.3,24.5-19.8,32.6-34.6
					c5.1-9.4,7.3-20.6,6.7-33.7l-9.8-199.3l-24.5,1.2c-14.6,0.7-25.6-1.9-32.9-7.8s-11.2-14-11.6-24.2s2.6-18.5,9.2-25.2
					c6.7-6.6,17.3-10.2,32-11l92.5-4.5c16.9-0.8,28.9,1.7,36.2,7.4c7.3,5.8,11.2,13.8,11.6,24c0.5,10.2-2.6,18.7-9.2,25.3
					C2856.9,4075.7,2845.1,4079.5,2828.2,4080.3z"/>
				<path class="st0" d="M3018.7,4238l4.9,100l173.5-8.5l-1.8-36.8c-0.8-16.9,1.7-29,7.8-36.2c6-7.3,14.1-11.2,24.3-11.7
					c10.2-0.5,18.5,2.6,25,9.2c6.5,6.7,10.1,18.5,10.9,35.3l5.1,104.8l-320.4,15.6c-16.9,0.8-29-1.7-36.2-7.8
					c-7.3-6-11.2-14.1-11.7-24.3c-0.5-10.2,2.6-18.5,9.2-24.9c6.7-6.5,18.5-10.1,35.3-11l10.9-0.5l-13-266.7l-10.9,0.5
					c-16.9,0.8-29-1.7-36.2-7.6c-7.3-5.9-11.2-14-11.6-24.2s2.6-18.5,9.2-25.2c6.7-6.6,18.4-10.3,35.3-11.1l306.1-14.6l5,103
					c0.8,16.9-1.7,29-7.4,36.2c-5.8,7.3-13.8,11.2-24,11.6c-10.1,0.5-18.7-2.6-25.3-9.2c-6.7-6.7-10.5-18.4-11.3-35.3l-1.7-35.4
					l-159.2,7.8l4.8,98.7l59.9-2.9c-0.8-16.9,0.7-27.7,4.7-32.3c8.1-9.9,17.2-15.1,27.5-15.6c10.2-0.5,18.5,2.6,25,9.2
					c6.5,6.7,10.1,18.5,10.9,35.3l3.3,68c0.8,16.9-0.7,27.7-4.5,32.5c-7.7,9.8-16.7,14.9-26.8,15.4c-10.1,0.5-19.8-3.8-28.8-12.9
					c-4.4-4.3-6.9-14.8-7.8-31.7L3018.7,4238z"/>
				<path class="st0" d="M3495.7,4283.6l87.3-240.2l-15.6,0.8c-17.2,0.8-29.4-1.7-36.7-7.6c-7.3-5.9-11.2-14-11.6-24.2
					s2.6-18.5,9.2-25.2c6.7-6.6,18.6-10.3,35.8-11.1l89.4-4.4c16.8-0.8,28.9,1.7,36.2,7.4c7.3,5.8,11.2,13.8,11.6,24
					s-3.7,19.8-12.8,28.7c-4.3,4.5-14.9,7.1-31.7,7.9l-124.1,341.7l-64.3,3.2l-155.9-327.9c-16.8,0.8-27.6-0.8-32.3-4.8
					c-9.8-7.8-15-16.7-15.5-26.9c-0.5-10.2,2.6-18.5,9.2-25.2c6.7-6.6,18.4-10.3,35.3-11.1l89.4-4.3c17.2-0.8,29.5,1.6,36.8,7.4
					c7.3,5.8,11.2,13.8,11.6,24c0.5,10.2-2.6,18.7-9.2,25.3c-6.7,6.7-18.6,10.5-35.8,11.3l-15.6,0.8L3495.7,4283.6z"/>
				<path class="st0" d="M3983.5,4249.6l-164.7,8.1L3804,4300l16.3-0.8c17-0.8,29.2,1.7,36.5,7.6c7.3,5.9,11.2,14,11.7,24.2
					c0.5,10.2-2.6,18.5-9.2,25.2c-6.7,6.6-18.5,10.3-35.6,11.1l-89.6,4.4c-16.9,0.8-28.9-1.7-36.2-7.8c-7.3-6-11.2-14.1-11.7-24.3
					c-0.5-10.2,2.6-18.5,9.2-25c6.7-6.5,18.4-10.1,35.3-10.9l94.4-271.9l-44.2,2.1c-16.9,0.8-28.9-1.7-36.2-7.6
					c-7.3-5.9-11.2-14-11.6-24.2s2.6-18.5,9.2-25.2c6.7-6.6,18.4-10.3,35.3-11.1l146.1-7.1l152,328.1c16.9-0.8,27.7,0.6,32.6,4.5
					c9.8,8,14.9,17,15.3,27.3c0.5,10.2-2.6,18.5-9.2,25.2c-6.7,6.6-18.4,10.3-35.3,11.1l-89.7,4.4c-17,0.8-29.1-1.7-36.4-7.8
					c-7.2-6-11.2-14.1-11.7-24.3c-0.5-10.2,2.6-18.5,9.2-24.9c6.7-6.5,18.5-10.1,35.5-11l16.3-0.8L3983.5,4249.6z M3952.6,4182.8
					l-61.4-132.5l-48.2,137.9L3952.6,4182.8z"/>
				<path class="st0" d="M4223,4330.6c-5.6,7.6-10.2,12.5-13.8,14.7c-3.6,2.2-8,3.4-13.3,3.7c-10.5,0.5-19-2.6-25.6-9.2
					c-6.7-6.7-10.4-18.1-11.2-34.3l-2.3-45.9c-0.8-16.4,1.8-28.3,7.8-35.5c5.9-7.3,14.2-11.2,24.6-11.7c8-0.4,14.8,1.4,20.4,5.3
					c5.6,3.9,10.1,10.7,13.5,20.5c3.4,9.7,6.7,16.3,9.9,19.6c6.7,6.5,18.5,13,35.1,19.3s34.8,8.9,54.2,7.9
					c30.2-1.5,54.8-9.8,73.5-24.9c12-9.2,17.6-20.2,17-32.8c-0.5-8.4-3.8-16.2-10.1-23.4c-6.3-7.2-16.3-12.8-29.9-17.1
					c-9-2.9-28.9-6.5-59.7-10.7c-37.3-5.1-65.7-12-85.2-20.9c-19.5-8.8-35.3-21.8-47.2-39c-12-17.2-18.4-36.1-19.4-56.7
					c-1.6-32.6,10.5-61.8,36.5-87.5c26-25.8,60.6-39.7,104-41.9c17.4-0.8,33.7,0.3,48.7,3.5c15.1,3.2,28.8,8.5,41.4,16
					c8.6-9,17.3-13.8,26.3-14.2c10.1-0.5,18.5,2.6,25.3,9.2c6.7,6.7,10.5,18.1,11.3,34.3l2.5,51.3c0.8,16.4-1.8,28.3-7.8,35.6
					c-5.9,7.3-14,11.2-24,11.7c-8.4,0.5-15.9-1.8-22.4-6.6c-5-3.6-9.1-11-12.1-22.2c-3-11.2-6.5-19.3-10.5-24
					c-6.8-8.2-16.7-14.9-29.8-20c-13.1-5.2-28-7.4-44.7-6.5c-24.5,1.2-43.5,7.8-57.2,20c-13.6,12.1-20.2,24.4-19.6,36.8
					c0.5,8.4,3.7,16.5,9.9,24c6.2,7.6,15.1,13.3,26.5,17.2c7.6,2.8,28.9,6.7,63.9,11.9c35,5.2,62,11.4,81.1,18.7
					c19.1,7.3,35.3,19.4,48.6,36.3c13.2,16.9,20.5,37.4,21.6,61.6c1.6,33.7-8.9,61.2-31.6,82.5c-30.1,28.1-69.6,43.4-118.2,45.7
					c-18.8,1-37.2-0.5-55.3-4.1C4257.9,4344.8,4240.2,4338.9,4223,4330.6z"/>
			</g>
		</g>
		<g>
			<g>
				<g>
					<path class="st0" d="M4909.9,4202.3l87.4-240.5l-15.6,0.8c-17.2,0.8-29.5-1.7-36.8-7.6c-7.3-5.9-11.2-14-11.7-24.2
						c-0.5-10.2,2.6-18.6,9.2-25.2s18.6-10.3,35.9-11.2l89.5-4.3c16.9-0.8,28.9,1.7,36.2,7.4c7.3,5.8,11.2,13.8,11.7,24
						c0.5,10.2-3.7,19.8-12.8,28.7c-4.3,4.5-14.9,7.1-31.8,7.9l-124.3,342l-64.5,3.2l-156.1-328.3c-16.9,0.8-27.7-0.8-32.4-4.8
						c-9.8-7.8-15.1-16.8-15.5-27c-0.5-10.2,2.6-18.6,9.2-25.2s18.4-10.3,35.3-11.1l89.5-4.4c17.2-0.8,29.5,1.7,36.8,7.4
						c7.3,5.8,11.2,13.8,11.7,24c0.5,10.2-2.6,18.7-9.2,25.4c-6.7,6.7-18.6,10.5-35.9,11.3l-15.6,0.8L4909.9,4202.3z"/>
					<path class="st0" d="M5659.1,3878.9c3.9-6.1,8.3-10.7,13.2-14c4.8-3.2,10.2-4.9,16-5.2c10-0.5,18.3,2.6,25,9.1
						c6.7,6.5,10.4,18,11.2,34.4l2.8,57.8c0.8,16.4-1.8,28.2-7.8,35.5s-14,11.2-23.9,11.6c-9.1,0.5-16.5-1.7-22.3-6.6
						c-5.8-4.8-10.3-14.1-13.7-27.9c-2-9.2-5.4-16.2-10.4-21.1c-9.6-9.5-22.7-16.9-39.2-22c-16.6-5.2-33.1-7.4-49.4-6.6
						c-20.4,1-38.9,6.3-55.5,16.1c-16.6,9.7-30.9,24.9-43.1,45.5c-12.1,20.7-17.5,44.7-16.2,72.2l2.1,44.3
						c1.6,32.9,14.9,59.7,39.8,80.5c24.9,20.8,58.5,30.2,100.9,28.1c25.3-1.2,46.5-5.7,63.6-13.5c10-4.5,20.5-12.9,31.5-25.3
						c6.7-7.5,12.1-12.3,16-14.7c3.9-2.3,8.4-3.6,13.5-3.8c9.1-0.5,17.2,2.6,24.5,9.1c7.2,6.6,11,14.5,11.5,23.8
						c0.5,9.3-3.7,19.6-12.5,30.7c-12.8,16.2-29.6,29.3-50.4,39.2c-28,13.4-59.3,20.9-93.9,22.6c-40.4,1.9-77.1-4.6-110.3-19.6
						c-26.8-12-50.1-32-69.9-59.8c-19.8-27.8-30.5-58.7-32.2-92.7l-2.3-46.3c-1.7-35.5,4.9-69,19.9-100.5
						c15-31.5,36.7-56.3,65.1-74.4c28.4-18.1,59-27.9,91.7-29.5c19.7-1,38.2,0.5,55.6,4.2C5627.5,3864,5643.8,3870.2,5659.1,3878.9z
						"/>
					<path class="st0" d="M5990.3,3913.3l13.1,267l45.7-2.2c16.9-0.8,29,1.7,36.3,7.6c7.3,5.9,11.2,14,11.7,24.2
						c0.5,10.2-2.6,18.6-9.2,25.2s-18.5,10.3-35.4,11.1L5893,4254c-16.9,0.8-29-1.7-36.3-7.8c-7.3-6-11.2-14.1-11.7-24.4
						c-0.5-10.2,2.6-18.5,9.2-25c6.7-6.5,18.5-10.1,35.4-11l45.7-2.2l-13.1-267l-74.2,3.6l3.2,64.7c0.8,16.9-1.7,29-7.6,36.3
						c-5.9,7.3-14,11.2-24.2,11.7c-10.2,0.5-18.6-2.6-25.2-9.2s-10.3-18.5-11.1-35.4l-6.5-132.8l353.6-17.2l6.5,132.8
						c0.8,16.9-1.7,29-7.6,36.3c-5.9,7.3-14,11.2-24.2,11.7c-10.2,0.5-18.6-2.6-25.2-9.2c-6.6-6.7-10.3-18.5-11.1-35.4l-3.2-64.7
						L5990.3,3913.3z"/>
					<path class="st0" d="M6543.3,4020.3c3,60.6-13.9,112-50.5,154.1c-36.6,42.1-80.2,64.5-130.8,66.9
						c-45.5,2.2-87.4-12.5-125.7-44.3c-47.4-39.3-72.6-92-75.8-158.1c-3.2-66.1,16.8-121.1,60.1-165.1c35-35.3,75.3-54.1,120.8-56.3
						c50.7-2.5,96.3,15.5,136.7,53.9C6518.5,3909.9,6540.3,3959.5,6543.3,4020.3z M6475.1,4023.6c-2-41.5-16.3-75.3-42.8-101.2
						c-26.5-26-55.7-38.2-87.7-36.6c-31.8,1.6-59.6,16.6-83.4,45.2c-23.8,28.6-34.7,63.4-32.7,104.8c2,41.3,16.2,74.9,42.7,100.9
						c26.5,26,55.6,38.2,87.4,36.6c32-1.6,60-16.5,83.8-44.8C6466.3,4100.1,6477.2,4065.1,6475.1,4023.6z"/>
					<path class="st0" d="M6684.1,4061l4.2,85.9l24.5-1.2c16.9-0.8,29,1.7,36.3,7.6c7.3,5.9,11.2,14,11.7,24.2s-2.6,18.6-9.2,25.2
						s-18.5,10.3-35.4,11.1l-103.6,5c-16.9,0.8-29-1.7-36.3-7.8c-7.3-6.1-11.2-14.1-11.7-24.4c-0.5-10.2,2.6-18.5,9.2-25
						c6.7-6.5,18.5-10.1,35.4-11l10.9-0.6l-13.1-267l-10.9,0.6c-16.9,0.8-29-1.7-36.3-7.6c-7.3-5.9-11.2-14-11.7-24.2
						c-0.5-10.2,2.6-18.6,9.2-25.2s18.5-10.3,35.4-11.1l154.3-7.6c48.1-2.3,85.9,7.8,113.6,30.4c27.7,22.5,42.3,51,44,85.1
						c1,21.3-4.3,41-16,59c-11.6,18-29.8,34.4-54.4,49.2c15,12,31.1,27.4,48.4,46.3c10.7,12.1,25.4,31.2,43.9,57.2
						c16.9-0.8,27.9,0.8,33.1,4.8c9.4,7.8,14.3,16.8,14.9,27c0.5,10.2-2.6,18.6-9.2,25.2c-6.7,6.6-18.4,10.3-35.3,11.1l-34.8,1.7
						c-59-82.6-107.1-131.8-144.1-147.3L6684.1,4061z M6680.8,3992.9l53.1-2.6c19.7-1,37.1-4.8,52.3-11.6c20.4-9,34-18.2,40.8-27.4
						c6.8-9.2,9.9-18.2,9.5-26.9c-0.6-12.9-8.1-24.5-22.4-34.8c-14.3-10.3-34.6-14.9-60.9-13.6l-78,3.8L6680.8,3992.9z"/>
					<path class="st0" d="M7527.7,4064.2l-164.9,8.1l-14.8,42.4l16.3-0.8c17.1-0.8,29.2,1.7,36.5,7.6c7.3,5.9,11.2,14,11.7,24.2
						c0.5,10.2-2.6,18.6-9.2,25.2c-6.7,6.6-18.5,10.3-35.6,11.1l-89.7,4.4c-16.9,0.8-29-1.7-36.3-7.8s-11.2-14.1-11.7-24.4
						c-0.5-10.2,2.6-18.5,9.2-25c6.7-6.5,18.5-10.1,35.4-11l94.5-272.3l-44.3,2.1c-16.9,0.8-28.9-1.7-36.2-7.6
						c-7.3-5.9-11.2-14-11.7-24.2c-0.5-10.2,2.6-18.6,9.2-25.2c6.7-6.6,18.4-10.3,35.3-11.1l146.3-7.2l152.2,328.5
						c16.9-0.8,27.8,0.6,32.6,4.5c9.8,8,14.9,17.1,15.4,27.3c0.5,10.2-2.6,18.6-9.2,25.2s-18.5,10.3-35.4,11.1l-89.8,4.4
						c-17,0.8-29.1-1.7-36.5-7.8c-7.3-6-11.2-14.1-11.7-24.4c-0.5-10.2,2.6-18.5,9.2-25s18.5-10.1,35.5-11l16.3-0.8L7527.7,4064.2z
						 M7496.7,3997.4l-61.4-132.7l-48.3,138L7496.7,3997.4z"/>
					<path class="st0" d="M7763.1,4145.6c-5.6,7.6-10.3,12.5-13.8,14.7s-8,3.4-13.4,3.7c-10.5,0.5-19-2.6-25.7-9.3
						c-6.7-6.7-10.4-18.1-11.2-34.4l-2.3-45.9c-0.8-16.4,1.8-28.3,7.8-35.6c5.9-7.3,14.2-11.2,24.7-11.7c8-0.4,14.8,1.4,20.5,5.3
						c5.6,3.9,10.1,10.8,13.5,20.5c3.4,9.8,6.7,16.3,10,19.6c6.8,6.5,18.5,13,35.2,19.3c16.7,6.3,34.8,8.9,54.3,8
						c30.3-1.5,54.9-9.8,73.6-24.9c12-9.3,17.6-20.2,17.1-32.9c-0.5-8.4-3.8-16.2-10.1-23.4c-6.3-7.2-16.3-12.8-30-17.1
						c-9-2.9-28.9-6.5-59.8-10.8c-37.3-5.1-65.8-12-85.3-20.9c-19.6-8.9-35.3-21.8-47.3-39c-12-17.2-18.5-36.1-19.4-56.8
						c-1.6-32.6,10.6-61.9,36.5-87.7c25.9-25.8,60.7-39.9,104.1-42c17.4-0.8,33.7,0.3,48.8,3.5c15.1,3.2,28.9,8.5,41.4,16
						c8.6-9,17.3-13.8,26.3-14.2c10.1-0.5,18.5,2.6,25.3,9.3c6.7,6.7,10.5,18.2,11.3,34.4l2.5,51.4c0.8,16.5-1.8,28.3-7.8,35.7
						c-6,7.3-14,11.2-24,11.7c-8.4,0.5-15.9-1.8-22.4-6.6c-5.1-3.6-9.1-11-12.1-22.3c-3-11.3-6.5-19.3-10.5-24
						c-6.8-8.2-16.7-14.9-29.8-20s-28-7.4-44.8-6.5c-24.5,1.2-43.5,7.8-57.2,20c-13.7,12.1-20.2,24.4-19.6,36.8
						c0.5,8.4,3.7,16.5,9.9,24c6.2,7.6,15.1,13.4,26.5,17.2c7.6,2.8,28.9,6.7,64,11.9c35,5.2,62.1,11.4,81.3,18.7
						s35.4,19.4,48.6,36.3c13.2,16.9,20.5,37.5,21.7,61.6c1.6,33.7-8.9,61.2-31.6,82.6c-30.2,28.2-69.6,43.4-118.4,45.8
						c-18.9,1-37.3-0.5-55.4-4.1C7798,4159.8,7780.3,4153.8,7763.1,4145.6z"/>
				</g>
				<path class="st0" d="M5285.3,3949.7l13.4,273.6l39.2-1.9c17.3-0.8,29.7,1.7,37.2,7.8c7.5,6.1,11.5,14.3,12,24.7
					c0.5,10.5-2.7,19.1-9.5,25.8c-6.8,6.8-18.9,10.5-36.2,11.4l-137.9,6.7c-17.3,0.8-29.7-1.8-37.2-7.9c-7.5-6.1-11.5-14.5-12-24.9
					c-0.5-10.5,2.6-19,9.5-25.6s18.9-10.4,36.3-11.2l28.8-1.4l-13.4-273.6l-28.8,1.4c-17.3,0.8-29.7-1.7-37.2-7.8
					s-11.4-14.3-12-24.7c-0.5-10.5,2.6-19.1,9.5-25.8c6.8-6.8,18.9-10.5,36.2-11.4l137.9-6.7c17.3-0.8,29.7,1.7,37.2,7.7
					c7.4,5.9,11.4,14.1,12,24.6c0.5,10.5-2.7,19.1-9.5,26c-6.8,6.8-18.9,10.7-36.2,11.6L5285.3,3949.7z"/>
				<path class="st0" d="M7127.2,3859.7l13.4,273.6l39.2-1.9c17.3-0.8,29.7,1.7,37.2,7.8c7.5,6.1,11.5,14.3,12,24.7
					c0.5,10.5-2.7,19.1-9.5,25.8c-6.8,6.8-18.9,10.5-36.2,11.4l-137.9,6.7c-17.3,0.8-29.7-1.8-37.2-7.9c-7.5-6.1-11.5-14.5-12-24.9
					c-0.5-10.5,2.6-19,9.5-25.6c6.8-6.7,18.9-10.4,36.3-11.2l28.8-1.4l-13.4-273.6l-28.8,1.4c-17.3,0.8-29.7-1.7-37.2-7.8
					c-7.5-6.1-11.4-14.3-12-24.7c-0.5-10.5,2.6-19.1,9.5-25.8c6.8-6.8,18.9-10.5,36.2-11.4l137.9-6.7c17.3-0.8,29.7,1.7,37.2,7.7
					c7.4,5.9,11.4,14.1,12,24.6c0.5,10.5-2.7,19.1-9.5,26c-6.8,6.8-18.9,10.7-36.2,11.6L7127.2,3859.7z"/>
				<g>
					<path class="st0" d="M8161.8,3765.8l-9,208.2c-0.4,10.8-3.5,19.3-9.5,25.5c-6,6.3-13.6,9.6-23,10c-9.4,0.5-17.3-2.1-23.9-7.8
						c-6.5-5.6-10.5-13.8-12-24.5l-29.6-206.4c-1.4-10.5-2.2-17.4-2.3-20.7c-0.8-17.4,3.7-31.7,13.7-42.9
						c10-11.1,22.8-17.1,38.4-17.8c15.4-0.7,28.7,4,39.8,14.2c11.1,10.2,17.1,23.5,17.9,39.8
						C8162.6,3746.9,8162.4,3754.3,8161.8,3765.8z M8167.1,4107.6c0.5,9.8-2.8,18.3-9.8,25.5c-7,7.2-16.9,11-29.7,11.7
						c-12.9,0.6-23.1-2.3-30.8-8.7c-7.6-6.5-11.7-14.6-12.2-24.5c-0.5-9.6,2.7-18,9.6-25.2c6.8-7.2,16.9-11,29.9-11.7
						c13.1-0.6,23.4,2.2,30.9,8.6C8162.6,4089.8,8166.6,4097.8,8167.1,4107.6z"/>
				</g>
			</g>
		</g>
		<g id="g8" transform="translate(-251.86567,231.84364)" inkscape:groupmode="layer" inkscape:label="LogosNicas">
			<g id="g33740" transform="matrix(0.64132361,0,0,0.64132361,211.7934,-252.71867)">
				
					<linearGradient id="path2098_00000029751683847926934180000008847953642764827837_" gradientUnits="userSpaceOnUse" x1="8308.3457" y1="-343.3592" x2="8308.3457" y2="-2356.9485" gradientTransform="matrix(0.5714 0 0 0.5714 -1142.9297 3627.3987)">
					<stop  offset="8.669766e-07" style="stop-color:#841F82"/>
					<stop  offset="0.2494" style="stop-color:#A0378E"/>
					<stop  offset="0.5046" style="stop-color:#B44998"/>
					<stop  offset="0.7567" style="stop-color:#C1539D"/>
					<stop  offset="1" style="stop-color:#C5579F"/>
				</linearGradient>
				<path id="path2098" style="fill:url(#path2098_00000029751683847926934180000008847953642764827837_);" d="M4750.6,3431h-2293
					c26-226.4,105.9-439.4,239.1-639c133.2-199.6,382.9-435,749.4-706.3c224-166.2,367-292.9,429.7-379.2
					c62.7-86.3,93.7-168.2,93.7-245.6c0-83.9-30.9-155.6-92.8-214.6c-61.9-59.4-139.7-89.2-233.8-89.2
					c-97.7,0-177.1,30.6-239.1,92.1c-61.9,61.1-103.4,169.5-124.6,324.6l-765.7-61.9c30.2-215.1,85.1-382.8,164.9-503.8
					c79.9-120.6,193-213.4,338.9-277.7s347.4-96.5,605.2-96.5c268.8,0,478.1,30.6,627.6,92.1c149.5,61.1,267.2,155.6,352.7,282.3
					c85.5,127.1,128.7,269.2,128.7,426.8c0,167.8-49.3,327.9-147.4,480.2c-98.1,152.7-277,320.1-535.6,503
					c-154,106.3-256.6,180.8-308.7,223.2c-51.7,42.4-112.8,98.1-182.9,167h1193.3v622.7h0.5V3431z"/>
				
					<linearGradient id="path2115_00000176031852954584791960000000790883133423764618_" gradientUnits="userSpaceOnUse" x1="17859.7207" y1="-343.3592" x2="17859.7207" y2="-2356.9485" gradientTransform="matrix(0.5714 0 0 0.5714 -1142.9297 3627.3987)">
					<stop  offset="8.669766e-07" style="stop-color:#008240"/>
					<stop  offset="3.140000e-02" style="stop-color:#078640"/>
					<stop  offset="0.2289" style="stop-color:#2C9942"/>
					<stop  offset="0.4266" style="stop-color:#49A943"/>
					<stop  offset="0.622" style="stop-color:#5DB443"/>
					<stop  offset="0.8144" style="stop-color:#6ABB44"/>
					<stop  offset="1" style="stop-color:#6EBD44"/>
				</linearGradient>
				<path id="path2115" style="fill:url(#path2115_00000176031852954584791960000000790883133423764618_);" d="M10207.9,3431h-2293
					c26-226.4,105.9-439.4,239.1-639c133.2-199.6,382.8-435,749.4-706.3c224-166.2,367-292.9,429.7-379.2s93.7-168.2,93.7-245.6
					c0-83.9-30.9-155.6-92.8-214.6c-61.9-59.4-139.7-89.2-233.8-89.2c-97.7,0-177.1,30.6-239.1,92.1
					c-61.9,61.1-103.4,169.5-124.6,324.6l-765.7-61.9c30.2-215.1,85.1-382.8,164.9-503.8c79.9-120.6,193-213.4,338.9-277.7
					c145.8-64.3,347.4-96.5,605.2-96.5c268.8,0,478.1,30.6,627.6,92.1c149.5,61.1,267.2,155.6,352.7,282.3
					c85.5,127.1,128.7,269.2,128.7,426.8c0,167.8-49.3,327.9-147.4,480.2c-98.1,152.7-277,320.1-535.6,503
					c-154,106.3-256.6,180.8-308.7,223.2c-51.7,42.4-112.8,98.1-182.9,167h1193.3v622.7h0.5V3431z"/>
			</g>
		</g>
		<g>
			
				<linearGradient id="SVGID_1_" gradientUnits="userSpaceOnUse" x1="11047.3096" y1="1999.2013" x2="11047.3096" y2="4780.001" gradientTransform="matrix(0.6461 0 0 -0.6461 283.1586 3471.0952)">
				<stop  offset="0" style="stop-color:#005E9C"/>
				<stop  offset="1" style="stop-color:#00B8F1"/>
			</linearGradient>
			<path class="st3" d="M7542.6,1849.4h-894.1v-403.7L7542.6,383h427.8v1085.6h221.7v380.8h-221.7v330.1h-427.8V1849.4z
				 M7542.6,1468.6V912.7l-472.4,555.9H7542.6z"/>
		</g>
		<g>
			<path class="st4" d="M1090.7,2461.6l188.1-7.1l17.2,458.6l292.9-11l5.6,149.4l-480.9,18.1L1090.7,2461.6z"/>
			<path class="st4" d="M2049.9,2934l-213.1,8l-26,101.4l-191.8,7.2l204.9-616.6l205.9-7.8l250.9,599.5l-196.7,7.4L2049.9,2934z
				 M2005.8,2803.7l-75.2-216l-58.1,221L2005.8,2803.7z"/>
			<path class="st4" d="M2600.1,2404.7l312.1-11.8c68-2.6,119.5,11.7,154.6,42.8c35.1,31.1,53.8,76.6,56,136.3
				c2.3,61.4-14.3,110.2-49.9,146.1c-35.6,36-91.2,55.4-166.9,58.2l-102.8,3.9l8.5,225.4l-188.7,7.1L2600.1,2404.7z M2798.6,2657.1
				l46-1.7c36.2-1.4,61.3-8.6,75.5-21.7s20.9-29.5,20.2-49.2c-0.7-19.1-7.7-35-20.9-47.8c-13.2-12.8-37.3-18.5-72.4-17.2l-53.4,2
				L2798.6,2657.1z"/>
			<path class="st4" d="M3534.7,2878.1l-213.1,8l-26,101.4l-191.8,7.2l204.9-616.6l205.9-7.8l250.9,599.5l-196.7,7.4L3534.7,2878.1z
				 M3490.6,2747.8l-75.2-216l-58.1,221L3490.6,2747.8z"/>
			<path class="st4" d="M3701.3,2363.3l570.7-21.5l5.6,150l-191.3,7.2l17.2,458l-188.1,7.1l-17.2-458l-191.3,7.2L3701.3,2363.3z"/>
			<path class="st4" d="M4382.6,2946.6l-22.9-608.1l312.9-11.8c58-2.2,102.6,1.1,133.6,9.9c31,8.9,56.5,26.3,76.3,52.5
				s30.4,58.7,31.9,97.4c1.3,33.7-4.8,63.1-18.3,88.1c-13.5,25-32.6,45.5-57.2,61.7c-15.7,10.3-37.5,19.1-65.2,26.6
				c22.6,6.7,39.2,13.5,49.6,20.6c7.1,4.7,17.4,15.1,31.2,30.9c13.7,15.9,22.9,28.2,27.7,36.9l97.9,172.8l-212.2,8l-107.2-182.2
				c-13.6-23.6-25.5-38.8-35.7-45.6c-13.9-8.9-29.4-13.1-46.5-12.4l-16.5,0.6l9.3,247.1L4382.6,2946.6z M4557.7,2577.8l79.1-3
				c8.5-0.3,25-3.7,49.4-10.2c12.3-3,22.2-9.7,29.7-20.3c7.5-10.5,11-22.5,10.5-35.8c-0.7-19.6-7.5-34.6-20.4-44.6
				c-12.9-10.1-36.4-14.5-70.5-13.2l-82.4,3.1L4557.7,2577.8z"/>
			<path class="st4" d="M5024.9,2313.5l188.1-7.1l22.9,608.1l-188.1,7.1L5024.9,2313.5z"/>
			<path class="st4" d="M5740.9,2795.1l-213.1,8l-26,101.4l-191.8,7.2l204.9-616.6l205.9-7.8l250.9,599.5l-196.7,7.4L5740.9,2795.1z
				 M5696.9,2664.8l-75.2-216l-58.1,221L5696.9,2664.8z"/>
			<path class="st4" d="M6014,2717.2l180.2-6.8l5.2,139.1c1.9,51.2-7.2,92-27.3,122.4c-20.2,30.4-55.4,58-105.9,82.6L6024,2982
				c31.6-16.2,53.2-31.9,64.7-47.1s17.6-33,18.2-53.3l-86.5,3.2L6014,2717.2z"/>
		</g>
	</g>
	<path class="st5" d="M7067.9,3088.9c31.3-45,58.5-94.1,95-134.1c64.5-70.4,149.9-58,202.5,29.5c23.5,39.1,34.6,86.2,53.6,135.5
		c47.9-36.1,99.5-74.2,150.3-113.3c48.4-37.1,85.3-21.9,91.1,42.4c3.9,43.7,0.2,88.4-1.9,132.6c-5.8,125.9,30.8,233.9,124.2,318.4
		c9.2,19.5,18.3,38.9,28.6,60.5c-62.6,34.4-95.9-18.5-127.9-46.8c-53.1-47-82.3-113.3-89.3-187.2c-0.4-62.2-0.2-124.4-1.7-186.6
		c-0.2-9.5-8.7-18.7-13.4-28c-7.7,5.5-15.4,11-23.1,16.5c-3,1.6-5.9,3-8.9,4.6c-6.9,4.7-14,9.5-20.9,14.1
		c-68.4,61.5-139,120.7-181.2,207.1c-12.5,25.6-34.8,58.3-64.1,37.4c-17.5-12.5-24.7-51.9-23.1-78.2c1.5-22.7,25.3-43,33.5-66.4
		c15.9-45.3,37-91.8,38.2-138.3c0.7-27.5-27.3-64.3-52.3-81.8c-30.4-21.3-65.8-2.5-85.9,28c-32.6,49-60.9,100.8-91.2,151.4
		c-20.7,34.7-38.9,71.6-63.4,103.2c-65.8,84.6-145.9,87.6-219.1,7.6c-27.3,16-55.8,32.2-83.8,49.4c-82.5,50.6-111.4,45.5-165.8-29.8
		c-36.2,16.1-71.5,34.4-108.6,47.8c-62.5,22.9-126.6,32-193.4,18.8c-11.7-2.3-27.4,14-40.4,23.1c-4.5,3-5.2,11.5-9.4,15.1
		c-67.5,56.8-218.2,45-276.3-21.3c-2.2-2.5-5.4-3.7-14-9.6c-29,26-58.7,54.5-90.3,80.4c-30.9,25.3-62,51.7-96.5,70.9
		c-39.5,21.9-82.1,27.8-118.7-10.4c-49-62.9-27.2-120,13.8-175.5c0-3.6,0-7.2-0.1-10.7c2.6-8.8,5.4-17.6,8-26.2l-0.4-0.5
		c4.5-7.9,8.9-15.9,13.4-23.8c4.3-9.4,8.7-18.9,13.1-28.2c19.7-38.1,39.3-76.3,58.9-114.4c7.8-14.7,17.5-28.6,23.1-44.1
		c12.3-34.6,32.4-44.7,64.1-25.6c2.8,2.8,5.8,5.8,8.7,8.7c-3.7,30.6-0.6,64.3-12.1,91.3c-36.3,84.6-78.1,166.7-120.4,255.2
		c101.7-21.4,248-183.5,322.5-348.4l0.9-0.9c32.8-14.1,61.8-6.3,88.6,15.6c-0.9,3,0,5.1,2.6,6.4c-1,20.2-2.1,40.5-3,60.7
		c-28.3,43.9-58.1,86.7-84.2,131.9c-19.3,33.5-12.7,60.1,31.1,61.2c48.6,1.4,97.4,0.3,152.3,0.3c-62.3-109.1-65.1-193,4.1-268.9
		c52.2-57.2,120.6-98.7,181.7-147.3l2.8,1.1l2.3-2.1c89.2-15,109.9-7.9,132.3,45.1c17.5,41.4,5.2,60-38.7,58.1
		c-94.6-3.9-211.1,71.8-246.1,160.2c-14.9,37.7-0.5,74.9,38.4,76.2c48.3,1.7,98.7-3.6,145.2-17.1c70.2-20.3,143.1-41.8,182.6-115.4
		c12.7-23.8,22-49.4,35.2-72.9c7.3-13.1,21.4-34.2,28.5-32.8c17.4,3.7,43.7,16.2,46.4,29.5c5.6,27.5,2.5,59.2-5.4,86.5
		c-8.4,29.5-26.4,56.1-35.9,87.8c65.4-28.4,131.7-49.3,174.6-114.7c32-49,73.4-91.4,110.5-136.8c19.5-6.3,51.2-23.1,56.1-17.1
		c15.9,20,27.2,47.6,30,73.6c1.6,14.3-15.5,32.4-27.2,46.2c-39.5,46.5-80.2,91.8-126.8,144.7c21,0,32.4,3,41.7-0.5
		C7015.2,3237.8,7035.4,3158.3,7067.9,3088.9z"/>
	<path class="st5" d="M3115.3,3903.2c1.8-6.3,3.7-12.7,5.4-18.9c39.7-100.5,79.4-200.9,119.1-301.4h-0.1
		c56.5-116,112.5-232.3,169.6-348c81.9-165.6,183-315.1,349.6-408.4l0.2-0.4c12.8-6.5,25.6-12.9,38.3-19.3
		c35.2,0.1,70.5,0.2,105.8,0.3c4.2,4.8,7.4,12.3,12.5,13.8c80.4,24.3,132,77.5,158.8,156.1c1.2,8.9,2.4,17.8,3.6,26.6
		c-9.9,250.8-193,481-418.5,514.6c33.1,44.2,58.1,91.3,95.6,123.8c49.1,42.6,109.6,72,162.4,110.7c16.9,12.4,25,36.6,37.1,55.5
		c-19.3,3.7-42.1,16.1-57.2,9.9c-51.5-21.1-109.6-39.1-148.3-76c-69.8-66.7-127.3-146.2-189.9-220.4c-16.5-29.1-32.9-58.1-54.5-96
		c-15.4,35.9-26.2,61.1-37,86.1l0.1-0.1c-13.8,29.8-27.7,59.6-41.5,89.4l0.9-1.2c-2.6,3.9-5,7.8-7.6,11.7c-2.4,1.9-3.2,4.3-2.3,7.2
		c-6.7,13.9-13.5,27.8-20.2,41.6h0.3c-6.5,13.5-13,27-19.6,40.4l0.1,0.1c-7,13.2-13.9,26.5-20.9,39.7c-6.5,12.8-12.8,25.7-19.3,38.5
		c-7.2,13.6-14.6,27.2-21.8,40.8c-5.7,10.5-11.4,21.1-17.1,31.6c-1.6,2.8-3.1,5.6-4.7,8.3c-2.3,3.4-4.6,6.7-6.8,10
		c-1.8,3.5-3.7,7-5.4,10.5c-3,2.2-4.3,5.2-3.7,8.9c-6.1,10.6-12.3,21.3-18.5,31.9l-0.5,1c-6.8,12.8-13.7,25.5-20.7,38.3v0.4
		c-4.2,4.8-7.6,10.9-12.7,14.4c-19.1,12.7-40.9,36.3-57.9,33.5c-18.5-3.1-37-28.9-47.5-49
		C3112.3,3944.3,3116.6,3922.3,3115.3,3903.2z M3522.7,3217.3c24.1,15.7,53.1,24.8,62.2,43.5c7.6,15.6-9.5,42.3-13.3,64.5
		c-1.5,8.7,1.7,19.1,5.7,27.3c28.6,57.8,63.1,71.8,126.8,52.6c138.1-41.4,281.5-236.5,279.6-380.3c-0.9-65.8-48.7-117.3-114-110.3
		c-42.9,4.7-88.3,19.6-125.1,42C3642.6,3018.7,3575.8,3113.6,3522.7,3217.3z"/>
	<path class="st5" d="M2332,3840.6l-2.6-1.8c0,0-2.5,1.9-2.5,1.8c-38.5-10.2-77.1-20.3-115.6-30.4c-1.8-3.5-4.6-4.8-8.4-3.8
		c-35.9-13.3-71.3-29.3-108.2-38.5c-14.8-3.7-36.6,3.8-49.5,13.6c-33,25.1-60.2,58.8-95,80.4c-20.9,13-59.5,21.3-76.9,10.4
		c-24.2-15.2-48.5-48.9-51.2-76.9c-10.2-106.3,47.6-157.2,153.6-143.7c27.8,3.6,52.3,10.6,73.8-20.9
		c143.4-208.7,271.2-425.9,361.3-663.2c13.2-34.8,31.3-38.4,60.5-27.1c0,0-0.2-0.2-0.2-0.3c7,6.2,14.1,12.3,21.1,18.5
		c-0.3,20.3-0.6,40.5-0.8,60.8c-3.2,6.7-6.3,13.4-9.5,20.1l0,0c-47,91.9-92.3,184.9-141.7,275.5
		c-55.5,101.9-114.8,201.8-172.5,302.6v0.9c-17.6,23.1-35.1,46-57.4,75.3c32.2,11.6,56.4,20.3,80.7,29.1l3.1,1.9l3.3-1.5
		c48,16.1,95.9,32.2,155.1,52.1c-8.7-46.6-15-80.2-21.2-113.7c1-5.2,2.1-10.4,3.1-15.6c26.9-47.3,53.8-94.5,80.7-141.9l-2.5-0.9
		l2.6,0.4c45.7-44.4,91.5-88.8,137.3-133.2c68.1-30.2,134.1-67.8,204.9-88.8c86.2-25.3,161,4.4,215.1,78.9
		c0,53.1,0.1,106.2,0.1,159.3v0.4c-50.8,82-101.5,164.1-157.3,254.3c21.8,1.3,42.3,6,61.4,2.8c39.2-6.6,77.3-20.7,116.6-25.3
		c28-3.2,57.1,4.2,85.7,6.9c0.2,5.2,0.4,10.4,0.6,15.6c-15.9,13.9-31.7,27.8-47.5,41.7c-6.2,2.6-12.4,5.2-18.5,7.8
		c-30.2,8.8-60,23.6-90.4,24.9c-46.5,2.1-103.5,10.2-137.7-12.2c-46.8-30.6-76.8-20.4-114.2,3l-0.9-0.6
		C2557.6,3839.9,2444.8,3840.2,2332,3840.6z M2505.6,3764.9c101.4-0.8,183.9-43.4,254.9-130c5.5-6.8,16.8-8.5,24.7-13.7
		c19.1-12.6,42.8-22.2,55.3-39.5c19.2-26.7,35.5-57.7,43.8-89.3c9.2-34.6,20.9-78.5,6.9-105.6c-10.3-19.8-62.3-31.1-92.3-25.8
		c-179.9,31.3-300.1,142.5-374.4,303.7C2394.8,3729.5,2428.1,3765.6,2505.6,3764.9z"/>
	<path class="st5" d="M5044,3401.7c19.8-19.7,38.1-41.2,59.8-58.5c16.5-13.2,37.2-21.1,65.5-36.6c-88.1-73.9-191.8-84.9-293-118
		c-19.6,70.7-37.7,135.7-55.8,200.6c-50,62.1-96.1,127.8-151.2,185.1c-45.5,47.2-108.3,66.7-174.2,79.3c-47.2,9-67.7-22.8-97.7-42.3
		l-0.1-0.1c-20.3-72.2-12.3-142.1,19.1-209.7c2.4-1.4,3.1-3.4,2.1-6c6.5-11.2,13-22.3,19.4-33.5v-0.1c13.1-20.2,26.2-40.6,39.3-60.8
		l0.3-0.5c7.4-12.5,14.9-25.1,22.4-37.7l-0.2-0.2c26.6-40.4,53.1-80.9,79.7-121.3c3.4-1.4,5.4-4,5.8-7.7c14.7-0.3,29.5-0.6,44.1-0.9
		c3.2,3,6.5,5.9,9.7,8.9c23.8,40.2,11,72.6-14.8,109c-49.2,69.3-94.1,141.7-136.6,215.3c-14.4,24.9-16.4,56.8-25,88.8
		c137.3-7,284.3-156.8,319.2-313.1l0.1-0.3c2.7-17.1,5.9-34,8.1-51.2c3.8-29.9,6.8-59.8,10.3-89.7l1.1-1.3
		c29.5-0.2,61.7-8.1,88.1,0.8c97.7,32.7,195.6,66.7,289.6,108.4c81,36,89,140.3,21.9,197.2c-6.7,5.7-9,16.2-16.2,29.8
		c62.9-13.4,98.5-45.6,115.8-96.7c20.9-61.6,44.3-123.1,30-184.7c-26.9,3.9-47.1,6.8-67.3,9.7c-2.5-20.7-11.3-43.2-5.8-61.6
		c6.5-22.4,24.1-42.1,38.6-61.6c40.1-53.9,69.3-50.2,97.4,12.9c9.4,21.1,17.6,43.8,20.2,66.5c11.6,104.8-3.8,207.5-49.9,301.4
		c-34.5,70.4-85.8,126.4-181.6,111.8c-59.4-9-100-39.9-135.3-83.3h0.7C5046.4,3433.9,5045.1,3417.9,5044,3401.7z"/>
	<path class="st5" d="M8074.3,2627c30.9,30.3,13.7,63.1-1.8,89.5c-82.7,141.5-122,295.7-163.9,449.5c-1.7,6.4-0.8,14.7-5,18.9
		c-9.9,10.1-22.2,18.2-33.5,27c-7.1-11.6-19.1-22.9-20-35c-1.6-19.3,2.9-39.3,7.1-58.6c17.1-78.8,35.1-157.6,52.8-236.3
		c33.1-74,67.5-147.7,98.8-222.3C8021.4,2629.3,8040.4,2617.8,8074.3,2627z"/>
	<path class="st6" d="M7347,3124.1c6.7-4.5,13.4-8.8,20-13.2C7360.3,3115.3,7353.7,3119.7,7347,3124.1z"/>
	<path class="st5" d="M6793.3,2968.6c-51.2,1.2-103,7.9-153.4,2.1c-51.9-5.9-83.7-66-67-113.5c11.2-32,37.2-47.4,64-26.4
		c63,49.4,126,23.1,185.1,1.7c49.6-17.8,116-36,121.6-98c5.2-57.7-62-69.8-99.4-99.6c-9.3-7.4-19.8-13.4-31.7-21.3
		c17.8-35.3,45.2-39.2,77.8-30.4c83.7,22.2,125.9,85.6,131.7,198.2c-20.8,35-41.6,70-62.5,105l0.2-0.2
		c-10.1,7.1-20.1,14.2-30.2,21.3c-8.7,6.5-17.3,13.1-26,19.6c-2.5-1-4.1-0.3-4.8,2.4c-35,13.2-69.9,26.4-104.7,39.5L6793.3,2968.6z"
		/>
	<path class="st5" d="M7095.4,2828.6c29.8-8.2,59.2-18.1,89.6-24.4c34.4-7.2,61.7,3.2,65.6,37.1c3.5,29.7-11.5,47.8-48.5,55.9
		c-59.4,13.1-116.4,33.9-175.3,49.2c-15.4,4-33.7-0.5-50.6-1c1.3-13.1,2.5-26.2,3.7-39.3c17.8-12.8,35.5-25.6,53.2-38.3l-0.2,0.2
		C7053.9,2854.8,7074.5,2841.6,7095.4,2828.6z"/>
	<path class="st5" d="M7854.6,3311.1c67.8,3.9,87.1,18.9,92.1,71.6c4.1,43.5-25.5,78.2-67.1,78.4c-37.9,0.2-76.1-39.7-66.9-79
		c5.8-25.3,27.2-47.5,41.6-71.1C7854.3,3311.1,7854.6,3311.1,7854.6,3311.1z"/>
	<path class="st5" d="M4203.7,3469.5c-3.6-0.8-6.6,0.1-9,2.5c-4.2,2.1-8.5,4.1-12.6,6.3l1.2-1c-32,11.5-64,22.9-96,34.5
		c1,5.6,2.2,11.3,3.2,16.9c17.3,3.6,34.6,7,51.9,10.5c1.9,2.5,4.3,3.2,7.2,1.5c25.4,3.2,50.7,6.2,76.1,9.3l-0.1,0.1
		c24.2,8.7,48.5,17.4,81.1,28.9c-13.7,14-26.1,26.7-38.5,39.3c-6.9,3.4-13.8,6.8-20.7,10.4c-38.5,0.6-77.1,1.2-115.6,1.7
		c-6.9-0.9-13.8-1.9-20.7-2.7c-24.3-10.5-48.6-21-72.9-31.5c-79.9-84.8-66.3-144.7,44.4-192.7c29.7-12.9,60.5-23.9,84.6-33.3
		c-27.3-34-62.9-64.6-79.7-102.5c-28.3-63.2-4.7-109.8,61.2-149.2c18.9-11.3,38.5-21.4,57.8-32.2c10.1-3.7,20.2-7.6,30.3-11.3
		c60.7,3.8,126.7-20.5,178.2,30.7c1,3.2,1.9,6.3,2.8,9.4c-0.6,13.2-1.2,26.5-1.7,39.7c-2.5,1.7-3.4,3.8-2.6,6.7
		c-23.5,0.8-47.2,4.2-70.4,1.9c-64.4-6.5-114.7,20.1-159.1,58.5c-28,24.2-20,46.2,14.2,59.8c36.8,14.7,73.8,29.1,110.6,43.6
		c3.2,2.5,6.6,5,9.8,7.6c3.9,4,7.6,8,11.5,12.1c3.6,5.6,7.1,11.1,10.7,16.7c5.8,34.4-12.3,54.7-44.1,67.8
		C4265.5,3442.5,4234.7,3456.2,4203.7,3469.5z"/>
	<path class="st5" d="M5535,3146.5c3-2.1,4.3-4.8,3.6-8.3c70.5-123.7,141-247.5,211.6-371.2l0.2-0.3c18.9-31.3,36.5-63.4,57.6-93.2
		c6.9-9.8,22.9-14.1,34.8-20.9c5.8,12.8,13.1,25.3,16.5,38.6c3.3,12.4,2.5,25.7,3.6,38.7c-3.8,0.5-5.8,2.6-5.8,6.3
		c-4.3,6.8-8.7,13.7-13.1,20.5c-2.8,3.7-5.5,7.4-8.2,11c-7.9,12.9-15.6,25.9-23.5,38.8c-7,12.1-14,24.1-20.9,36.2
		c-13.1,21.3-26,42.8-39.1,64.2c-2.8,1.5-4,3.7-3.4,6.8c-21.3,37.2-42.6,74.6-63.9,111.8h-0.3c-37.7,66.9-75.4,133.7-113.2,200.7
		c-5,9-9.9,18.1-14.9,27.1c-14.2,30.4-28.6,60.8-42.8,91.2l0.5,0.3c-4.9,12.7-9.8,25.5-14.7,38.2l1-0.5c-1.9,4.4-3.8,8.7-5.6,13.1
		c-0.8,4.8-1.5,9.6-2.3,14.3c-7.3,41.6-14.5,83.1-21.9,124.7v-0.6c-35.7,24.5-53.3-1-53.6-25.2c-0.6-49.9-0.5-102.6,15.5-149.3
		c22.7-66.7,60-129.1,91-193.3c3.2-1,4.5-3.1,3.9-6.3C5530.4,3155.4,5532.7,3151,5535,3146.5z"/>
	
		<linearGradient id="SVGID_00000042719168511933212260000010697034494243642294_" gradientUnits="userSpaceOnUse" x1="4009.8799" y1="2244.8071" x2="4009.8799" y2="383.0771">
		<stop  offset="1.733953e-06" style="stop-color:#FCB813"/>
		<stop  offset="6.230000e-02" style="stop-color:#FCBD11"/>
		<stop  offset="0.4345" style="stop-color:#FEDA08"/>
		<stop  offset="0.7596" style="stop-color:#FFEB02"/>
		<stop  offset="1" style="stop-color:#FFF100"/>
	</linearGradient>
	<path style="fill:url(#SVGID_00000042719168511933212260000010697034494243642294_);" d="M4980.1,1311.3
		c0,335.7-130.9,616.2-383.7,779.4c-35.2,22.7-72.7,43.2-112.6,61.2c-0.4,0.2-0.7,0.3-1.1,0.5c-51.3,23.1-106.4,42.2-165.4,56.9h0
		c-93.1,23.2-195.6,35.5-307.5,35.5c-145.6,0-275.6-20.9-389.3-59.5c-73.4-25-140.1-57.4-199.9-96.3c-0.3-0.2-0.6-0.4-0.9-0.6
		c-70.4-46-131.3-101.2-182.4-164.1c-87-107.1-145.7-236.7-175.3-382.2c-14.9-73.2-22.4-150.4-22.4-230.7c0-6.8,0.1-13.5,0.2-20.2
		c0-0.4,0-0.7,0-1.1c1.2-75.4,9.2-147.8,23.8-216.7c53.5-252.9,196.4-456.6,424.5-575.5h0c46-24,95.5-44.5,148.5-61.3
		c0.3-0.1,0.7-0.2,1-0.3c42.7-13.5,87.6-24.6,134.8-33c73.8-13.2,152.9-20.2,237.4-20.2c415.5,0,702.8,168.6,851.7,435.2
		c10.2,18.3,19.8,37,28.7,56.2c0.2,0.4,0.3,0.7,0.5,1.1c8.9,19.2,17.1,38.8,24.7,58.9C4958.3,1048.1,4980.1,1175.1,4980.1,1311.3z"
		/>
	<path class="st8" d="M4980.1,1311.3c0,335.7-130.9,616.2-383.7,779.4c-35.2,22.7-72.7,43.2-112.6,61.2c-0.4,0.2-0.7,0.3-1.1,0.5
		c-51.3,23.1-106.4,42.2-165.4,56.9h0c-93.1,23.2-195.6,35.5-307.5,35.5c-145.6,0-275.6-20.9-389.3-59.5
		c-73.4-25-140.1-57.4-199.9-96.3c-0.3-0.2-0.6-0.4-0.9-0.6c-70.4-46-131.3-101.2-182.4-164.1c-87-107.1-145.7-236.7-175.3-382.2
		c-14.9-73.2-22.4-150.4-22.4-230.7c0-6.8,0.1-13.5,0.2-20.2c0-0.4,0-0.7,0-1.1c1.2-75.4,9.2-147.8,23.8-216.7
		c53.5-252.9,196.4-456.6,424.5-575.5h0c46-24,95.5-44.5,148.5-61.3c0.3-0.1,0.7-0.2,1-0.3c42.7-13.5,87.6-24.6,134.8-33
		c73.8-13.2,152.9-20.2,237.4-20.2c415.5,0,702.8,168.6,851.7,435.2c10.2,18.3,19.8,37,28.7,56.2c0.2,0.4,0.3,0.7,0.5,1.1
		c8.9,19.2,17.1,38.8,24.7,58.9C4958.3,1048.1,4980.1,1175.1,4980.1,1311.3z"/>
	<path id="polygon1931_00000173878094635293042420000001777192877280286599_" class="st9" d="M3575.5,1.6l199.4,1418.2l-0.5,0.5
		L3394.1,1027h1.8l179-1026.8L3575.5,1.6z"/>
	<path id="polygon1935_00000114064902429060206100000004848764781416048048_" class="st9" d="M3576.5,1.3l199.4,1418.2l0.5,0.5
		l257-482.6l-1.6,0.3L3576.8,0L3576.5,1.3z"/>
	<path class="st9" d="M3775.1,1421l-0.5,0.2l-0.8,0.4l-489.7,239.5l-0.3,0.1l0.2-1.5l0-0.4l-0.9-0.5l-221.2-117
		c-14.9-73.2-22.4-150.4-22.4-230.7c0-6.8,0.1-13.5,0.2-20.2l733.6,129.2l1,0.2l0.4,0.1l0.1,0.3L3775.1,1421z"/>
	<path class="st9" d="M3775.6,1419.2l-0.5,0.3l-0.3-0.1l-1.6-0.3L3039.9,1290c1.2-75.4,9.2-147.8,23.8-216.7l330.8-45.9l1.2-0.2
		l0-0.3l0.2-1.6l0.2,0.2l378.5,392.5l0.5,0.5L3775.6,1419.2z"/>
	<path class="st9" d="M3853,1962.1l-1.4-0.7l-0.2-0.1l-0.8,0.8l-230,223.2c-73.4-25-140.1-57.4-199.9-96.3l354.1-666.6l0.7-1.4
		l0.1-0.2l0.4-0.2l0.1,0l0.1,0.6l0.1,0.7l76.6,539.8L3853,1962.1z"/>
	<path class="st9" d="M3774.6,1419.7v0.5l-0.1,0.2h0l-0.6,1.2l-354,666.7c-70.4-46-131.3-101.2-182.4-164.1l46.8-263.1l0.2-1.2
		l-0.3-0.2l-1.2-0.6l0.4-0.2l490.2-238.8l0.6-0.3L3774.6,1419.7z"/>
	<path class="st9" d="M4596.4,2090.8c-35.2,22.7-72.7,43.2-112.6,61.2l-706.4-730.6l-1.1-1.1l-0.2-0.2v-0.5l0.5,0.1l0.7,0.1
		l537.3,93.8l0.2,0l-1,1l-0.3,0.3l0.5,1L4596.4,2090.8z"/>
	<path class="st9" d="M4482.7,2152.4c-51.3,23.1-106.4,42.2-165.4,56.9h0l-464.4-247.8l-1-0.5l-0.4,0.4l-1,0.9l0-0.2l-75.8-539.7
		l-0.2-1.1l-0.1-0.5h0.8l0.2,0.2l0.8,0.8L4482.7,2152.4z"/>
	<path id="polygon1979_00000120532831136721516810000007191600898094678918_" class="st9" d="M5062.2,790.4l-1286.6,628.8h-0.8
		l255.9-483.4l0.8,1.6l1031.5-148L5062.2,790.4z"/>
	<path id="polygon1983_00000103977007245886746940000000761439766690335387_" class="st9" d="M5062.7,791.4l-1286.6,628.8l-0.3,0.8
		l538.4,94.9l-0.5-1.6L5064,791.2L5062.7,791.4z"/>
</g>
</svg>
